<?xml version="1.0" encoding="UTF-8"?>
<svg id="Camada_1" data-name="Camada 1" xmlns="http://www.w3.org/2000/svg" viewBox="0 0 596.46 147.01">
  <defs>
    <style>
      .cls-1 {
        fill: #fff;
      }

      .cls-2 {
        fill: #ff5b00;
      }
    </style>
  </defs>
  <path class="cls-1" d="m581.3,65.93v12.8c-.06,4.06-.09,7.08-.09,9.08-.06,7.51-.09,13.77-.09,18.8l-.09,6.45c0,.79.39,1.18,1.18,1.18h13.08c.79,0,1.18-.39,1.18-1.18l-.09-6.45c0-5.02-.03-11.29-.09-18.8v-9.08l-.09-2.45v-10.35c0-1.21-.09-2.39-.27-3.54-.24-2.36-.76-4.66-1.54-6.9-1.58-4.6-4.09-8.66-7.54-12.17-3.33-3.51-7.33-6.11-11.99-7.81-2.18-.79-4.45-1.36-6.81-1.73l-.91-.09c-.3-.06-.61-.09-.91-.09h-.45l-.45-.09h-3.27l-.82.09c-4.42.36-8.57,1.54-12.44,3.54-1.33.67-2.69,1.51-4.09,2.54v-6.17c0-.79-.39-1.18-1.18-1.18h-13.26c-.79,0-1.18.39-1.18,1.18v79.72c0,.79.39,1.18,1.18,1.18h13.26c.79,0,1.18-.39,1.18-1.18v-47.13c.06-.3.09-.73.09-1.27l.09-.45v-.64c.06-.36.18-.88.36-1.54.3-1.39.79-2.75,1.45-4.09.79-1.69,1.85-3.21,3.18-4.54,3.33-3.63,7.42-5.54,12.26-5.72l.45-.09h.91l.64.09h1c.06,0,.18.03.36.09l.54.09c1.33.18,2.57.52,3.72,1,2.6.97,4.81,2.42,6.63,4.36,1.88,2,3.24,4.27,4.09,6.81.36,1.21.6,2.48.73,3.81l.09,1.91Z"/>
  <path class="cls-1" d="m472.7,32.56c-11.26,0-20.88,3.97-28.88,11.9-7.99,7.99-11.99,17.62-11.99,28.88s4,20.98,11.99,28.97c7.99,7.93,17.62,11.9,28.88,11.9s20.94-3.96,28.88-11.9c7.99-7.99,11.99-17.65,11.99-28.97s-4-20.88-11.99-28.88c-7.93-7.93-17.56-11.9-28.88-11.9Zm18.07,58.84c-4.96,5.03-10.99,7.54-18.07,7.54s-13.02-2.51-17.98-7.54c-5.03-4.96-7.54-10.99-7.54-18.07s2.51-13.01,7.54-17.98c4.96-5.02,10.96-7.54,17.98-7.54s13.11,2.51,18.07,7.54c5.02,4.96,7.54,10.96,7.54,17.98s-2.51,13.11-7.54,18.07Z"/>
  <path class="cls-1" d="m416.32,130.05h-10.28c-.1,0-.17.05-.22.15l-6.66,16.66c-.04.1-.01.15.09.15h1.86c.1,0,.17-.05.22-.15l2.91-7.27,7.19.02c.1,0,.17-.05.21-.15l-.03-1.88c.04-.1.01-.15-.09-.15h-6.41l2.09-5.22,9.02-.04c.1,0,.17-.05.22-.15v-1.82c.03-.1,0-.15-.1-.15Z"/>
  <rect class="cls-1" x="451.14" y="130.07" width="2.17" height="16.94" rx=".15" ry=".15"/>
  <path class="cls-1" d="m497.48,137.79c.92-.91,1.36-1.99,1.34-3.24-.02-1.24-.48-2.29-1.36-3.16-.88-.88-1.94-1.31-3.18-1.31h-6.11c-.1,0-.15.05-.15.15v16.64c0,.1.05.15.15.15h6.53c1.37,0,2.56-.47,3.55-1.41,1-.94,1.52-2.09,1.56-3.44.02-.91-.18-1.75-.6-2.53-.42-.77-.99-1.38-1.73-1.85Zm-7.31-5.56h4.11c.65,0,1.21.24,1.68.71.47.47.71,1.03.71,1.68s-.24,1.23-.71,1.69c-.47.47-1.03.7-1.68.7h-4.11v-4.78Zm6.65,11.8c-.55.56-1.22.84-2.01.84h-4.64v-5.69h4.64c.79,0,1.46.28,2.01.83s.84,1.23.84,2.01-.28,1.46-.84,2.01Z"/>
  <path class="cls-1" d="m544.59,137.92c.71-.84,1.08-1.81,1.12-2.91.04-1.36-.41-2.52-1.36-3.49s-2.1-1.46-3.46-1.46h-6.22c-.1,0-.15.05-.15.15v16.61c0,.1.05.15.15.15h1.85c.1,0,.15-.05.15-.15v-7.16h2.92-.01s3.98,7.27,3.98,7.27c.02.06.07.08.13.08h2.11c.06,0,.11-.02.13-.07.03-.06.04-.11.01-.15l-3.99-7.27c1.06-.25,1.94-.79,2.64-1.61Zm-7.92-.4v-5.3h4.22c.73,0,1.36.26,1.88.77.52.52.78,1.15.78,1.88s-.26,1.35-.78,1.87c-.52.52-1.15.78-1.88.78h-4.22Z"/>
  <path class="cls-1" d="m589.38,130.03h-1.65c-.06,0-.11.03-.14.09l-6.92,16.67s-.02.09.01.14c.03.05.07.07.13.07h1.89c.07,0,.12-.03.14-.09l2.71-6.53h6l2.71,6.53c.02.06.07.09.14.09h1.89c.06,0,.1-.02.13-.07.03-.05.04-.09.01-.14l-6.92-16.67c-.02-.06-.07-.09-.14-.09Zm-2.96,8.29l2.14-5.15,2.13,5.15h-4.27Z"/>
  <path class="cls-2" d="m252.54,33.06c-1.77.06-3.65.13-5.88.52,0,0-1.38.25-2.59.57-3.76,1.01-7.09,3.13-9.06,4.54,0-1.69,0-3.39,0-5.08,0-.79-.39-1.18-1.18-1.18h-13.17c-.79,0-1.18.39-1.18,1.18v79.54c0,.79.39,1.18,1.18,1.18h13.17c.79,0,1.18-.39,1.18-1.18v-49.21c.54-4.42,2.48-8.11,5.81-11.08,1.69-1.54,3.53-2.69,5.52-3.44,3-1.14,5.51-1.12,6.19-1.1,1.35.04,2.48.25,3.29.45,1.89-4.69,3.77-9.38,5.66-14.07-.48-.23-1.17-.55-2.05-.83-2.53-.83-4.61-.89-6.9-.81Z"/>
  <path class="cls-2" d="m333.71,98.21c-.72-7.39-1.09-13.71-1.09-18.98,0-1.03.03-2.6.1-4.72.05-1.03.09-2.03.09-3,.12-6.84-.25-12.29-1.09-16.34-1.22-6.12-3.61-11.02-7.18-14.71-7.45-7.71-18.16-7.85-22.15-7.9-10.17-.14-18.52,4.07-23.26,6.67l5.86,14.15c4.11-2.73,10.13-5.62,17.4-5.57,3.31.03,7.85-.06,11.17,3.36,2.05,2.12,3.29,5.87,3.72,11.26-11.15-.71-20.38-.01-27.67,2.11-5.1,1.48-9.26,3.66-12.47,6.52-.43.38-.83.76-1.21,1.16-4.34,4.36-6.5,9.81-6.5,16.36,0,7.99,2.45,14.26,7.35,18.8,4.13,3.78,9.62,5.96,16.46,6.54,1.28.12,2.6.18,3.97.18,4.33,0,8.36-.67,12.08-2.02,3.58-1.27,6.88-3.18,9.9-5.7.24,2.3.51,4.57.81,6.81.12.67.52,1,1.18,1h13.08c.91,0,1.3-.45,1.18-1.36-.3-2.06-.58-4.15-.82-6.27-.36-2.84-.66-5.63-.91-8.35Zm-25.24-2.82c-1.54,1.07-3.22,1.91-5.05,2.51-.34.11-.68.21-1.03.31-1.7.42-3.42.63-5.18.63-5.15,0-8.66-1.06-10.53-3.17-1.27-1.46-1.91-3.82-1.91-7.09,0-2.54.82-4.54,2.45-5.99,1.89-1.68,4.65-2.93,8.29-3.78,3.71-.87,8.33-1.3,13.87-1.3,2.48,0,5.08.09,7.81.27-.97,8.23-3.88,14.1-8.72,17.61Z"/>
  <path class="cls-2" d="m426.89,32.42h-14.26c-.49,0-.85.24-1.09.73l-22.97,57.3-23.79-57.3c-.18-.48-.54-.73-1.09-.73h-14.26c-.42,0-.76.18-1,.54-.24.3-.27.67-.09,1.09l31.87,77-13.8,34.32c-.12.42-.06.79.18,1.09.18.36.48.54.91.54h14.26c.54,0,.91-.24,1.09-.73l45.13-112.23c.18-.42.15-.79-.09-1.09-.24-.36-.58-.54-1-.54Z"/>
  <polygon class="cls-2" points="96.38 31.83 96.36 31.8 96.3 31.65 108.26 2.21 109.15 0 83.98 0 79.19 11.91 66.6 43.21 66.51 43.42 75.63 65.82 79.03 74.17 61.73 116.7 49.52 146.7 75.33 146.7 91.79 105.79 91.85 105.66 91.85 105.64 104.38 74.5 91.79 43.22 96.38 31.83"/>
  <path class="cls-1" d="m42.43,39.96l11.07-27.51c-13.55,1.61-25.38,7.41-35.46,17.42C6.01,41.89,0,56.37,0,73.31s6.01,31.56,18.03,43.58c4.3,4.27,8.93,7.77,13.87,10.51l4.35-10.69,4.47-10.99c-2.2-1.48-4.3-3.21-6.29-5.22-7.56-7.47-11.34-16.53-11.34-27.19s3.78-19.58,11.34-27.05c2.49-2.52,5.16-4.61,8-6.3Z"/>
  <path class="cls-1" d="m127.76,14.06l-7.15,17.6.06.15.02.03-1.54,3.83c7.32,1.44,13.76,4.97,19.31,10.59,7.56,7.47,11.34,16.49,11.34,27.05s-3.78,19.72-11.34,27.19c-6.89,6.98-15.15,10.73-24.76,11.26l-9.13,22.69c2.19.22,4.42.33,6.7.33,17.03,0,31.51-5.96,43.44-17.9,12.02-12.02,18.03-26.55,18.03-43.58s-6.01-31.42-18.03-43.44c-7.87-7.87-16.86-13.13-26.95-15.81Z"/>
</svg>