<?xml version="1.0" encoding="UTF-8"?>
<svg id="Camada_1" data-name="Camada 1" xmlns="http://www.w3.org/2000/svg" viewBox="0 0 544.67 424.37">
  <defs>
    <style>
      .cls-1, .cls-2 {
        fill: #ff5b00;
      }

      .cls-3 {
        fill: #001ab2;
      }

      .cls-2 {
        opacity: .25;
      }
    </style>
  </defs>
  <g>
    <path class="cls-3" d="m544.41,338.83c.09,10.85.13,19.9.13,27.16l.13,9.32c0,1.14-.57,1.71-1.71,1.71h-18.89c-1.14,0-1.71-.57-1.71-1.71l.13-9.32c0-7.26.04-16.31.13-27.16,0-2.89.04-7.26.13-13.12v-18.5l-.13-2.75c-.18-1.92-.52-3.76-1.05-5.51-1.22-3.67-3.19-6.95-5.9-9.84-2.62-2.8-5.82-4.9-9.58-6.3-1.66-.7-3.46-1.18-5.38-1.44l-.79-.13c-.26-.09-.44-.13-.52-.13h-1.44l-.92-.13h-1.31l-.66.13c-7,.26-12.9,3.02-17.71,8.27-1.92,1.93-3.46,4.11-4.59,6.56-.96,1.93-1.66,3.89-2.1,5.9-.26.96-.44,1.71-.52,2.23v.92l-.13.66c0,.79-.05,1.4-.13,1.84v68.09c0,1.14-.57,1.71-1.7,1.71h-19.16c-1.14,0-1.71-.57-1.71-1.71v-115.19c0-1.14.57-1.71,1.71-1.71h19.16c1.14,0,1.7.57,1.7,1.71v8.92c2.01-1.49,3.98-2.71,5.9-3.67,5.6-2.89,11.59-4.59,17.97-5.12l1.18-.13h4.72l.66.13h.66c.44,0,.87.05,1.31.13l1.31.13c3.41.52,6.69,1.36,9.84,2.49,6.73,2.45,12.51,6.21,17.32,11.28,4.98,5.07,8.61,10.93,10.89,17.58,1.13,3.24,1.88,6.56,2.23,9.97.26,1.66.39,3.37.39,5.12v14.96l.13,3.54v13.12Z"/>
    <path class="cls-3" d="m365.85,259c16.35,0,30.26,5.73,41.72,17.19,11.55,11.55,17.32,25.45,17.32,41.72s-5.77,30.31-17.32,41.85c-11.46,11.46-25.37,17.19-41.72,17.19s-30.18-5.73-41.72-17.19c-11.55-11.55-17.32-25.49-17.32-41.85s5.77-30.17,17.32-41.72c11.54-11.46,25.45-17.19,41.72-17.19Zm0,95.9c10.23,0,18.94-3.63,26.11-10.89,7.26-7.17,10.89-15.87,10.89-26.11s-3.63-18.8-10.89-25.98c-7.17-7.26-15.87-10.89-26.11-10.89s-18.81,3.63-25.98,10.89c-7.26,7.17-10.89,15.83-10.89,25.98s3.63,18.94,10.89,26.11c7.17,7.26,15.83,10.89,25.98,10.89Z"/>
    <g>
      <path class="cls-3" d="m271.2,402.98l-3.02,7.54h9.27c.15,0,.19.07.13.22l.04,2.72c-.06.15-.16.22-.31.22l-10.38-.03-4.2,10.5c-.06.15-.16.22-.31.22h-2.68c-.15,0-.19-.07-.13-.22l9.63-24.07c.06-.15.16-.22.31-.22h14.86c.15,0,.19.07.13.22v2.63c-.05.15-.15.22-.3.22l-13.03.06Z"/>
      <path class="cls-3" d="m337.61,399.89c.15,0,.22.07.22.22v24.04c0,.15-.07.22-.22.22h-2.68c-.15,0-.22-.07-.22-.22v-24.04c0-.15.07-.22.22-.22h2.68Z"/>
      <path class="cls-3" d="m401.66,411.04c1.06.67,1.89,1.56,2.5,2.67.62,1.13.91,2.35.87,3.66-.06,1.96-.81,3.62-2.26,4.97-1.44,1.36-3.15,2.03-5.13,2.03h-9.44c-.15,0-.22-.07-.22-.22v-24.04c0-.15.07-.22.22-.22h8.82c1.79,0,3.32.63,4.6,1.9,1.28,1.25,1.93,2.78,1.97,4.56.03,1.81-.61,3.37-1.93,4.68Zm-10.57-1.13h5.93c.95,0,1.76-.34,2.43-1.01.68-.67,1.03-1.49,1.03-2.44s-.34-1.75-1.03-2.43c-.67-.68-1.48-1.03-2.43-1.03h-5.93v6.91Zm6.7,11.35c1.14,0,2.11-.4,2.91-1.21.81-.8,1.21-1.77,1.21-2.91s-.41-2.1-1.21-2.91-1.77-1.2-2.91-1.2h-6.7v8.22h6.7Z"/>
      <path class="cls-3" d="m471.67,424.05c.03.07.03.14-.02.22-.03.07-.1.1-.19.1h-3.04c-.09,0-.15-.04-.19-.12l-5.74-10.48.02-.02h-4.22v10.34c0,.15-.07.22-.22.22h-2.67c-.15,0-.22-.07-.22-.22v-24c0-.15.07-.22.22-.22h8.99c1.96,0,3.62.7,4.99,2.1,1.37,1.4,2.02,3.08,1.97,5.04-.06,1.58-.6,2.99-1.62,4.21-1.01,1.19-2.29,1.96-3.81,2.33l5.76,10.5Zm-7.28-13.4c1.06,0,1.97-.38,2.72-1.13s1.13-1.65,1.13-2.7-.38-1.97-1.13-2.72c-.75-.74-1.66-1.11-2.72-1.11h-6.1v7.66h6.1Z"/>
      <path class="cls-3" d="m534.44,399.84c.1,0,.17.05.21.14l10,24.09c.03.07.03.14-.02.21s-.11.1-.19.1h-2.74c-.1,0-.17-.05-.21-.14l-3.91-9.44h-8.67l-3.91,9.44c-.03.09-.1.14-.21.14h-2.74c-.08,0-.14-.03-.19-.1s-.05-.14-.02-.21l10-24.09c.05-.09.11-.14.21-.14h2.38Zm1.9,11.98l-3.08-7.44-3.09,7.44h6.17Z"/>
    </g>
    <g>
      <path class="cls-1" d="m22.43,267.86c2.85-2.04,7.66-5.09,13.09-6.55,1.75-.47,3.74-.83,3.74-.83,3.22-.57,5.94-.66,8.49-.75,3.3-.12,6.32-.04,9.97,1.17,1.26.42,2.27.87,2.96,1.21-2.72,6.77-5.45,13.55-8.17,20.32-1.17-.29-2.8-.6-4.76-.65-.98-.03-4.61-.06-8.94,1.58-2.88,1.09-5.54,2.75-7.98,4.97-4.81,4.29-7.61,9.62-8.4,16.01v71.11c0,1.14-.57,1.71-1.7,1.71H1.71c-1.14,0-1.71-.57-1.71-1.71v-114.93c0-1.14.57-1.71,1.71-1.71h19.02c1.14,0,1.7.57,1.7,1.71,0,2.45,0,4.9,0,7.35Z"/>
      <path class="cls-1" d="m166.35,365.92c-.52-4.1-.95-8.13-1.31-12.06-1.04-10.68-1.57-19.81-1.57-27.42,0-1.49.04-3.76.14-6.82.07-1.49.13-2.93.13-4.33.17-9.88-.36-17.76-1.57-23.61-1.76-8.84-5.22-15.92-10.37-21.25-10.76-11.14-26.24-11.34-32-11.41-14.69-.2-26.76,5.88-33.61,9.64l8.47,20.44c5.94-3.94,14.64-8.12,25.14-8.05,4.78.04,11.34-.09,16.14,4.85,2.96,3.06,4.75,8.48,5.38,16.27-16.11-1.03-29.45-.01-39.98,3.05-7.37,2.14-13.38,5.29-18.02,9.42-.62.55-1.2,1.1-1.75,1.68-6.27,6.3-9.39,14.17-9.39,23.64,0,11.54,3.54,20.6,10.62,27.16,5.97,5.46,13.9,8.61,23.78,9.45,1.85.17,3.76.26,5.74.26,6.26,0,12.08-.97,17.45-2.92,5.17-1.83,9.94-4.59,14.3-8.24.35,3.32.74,6.6,1.17,9.84.17.97.75,1.44,1.7,1.44h18.9c1.31,0,1.88-.65,1.7-1.97-.43-2.98-.84-6-1.18-9.06Zm-37.78-16.14c-2.23,1.55-4.65,2.76-7.3,3.63-.49.16-.98.3-1.49.45-2.46.61-4.94.91-7.48.91-7.44,0-12.51-1.53-15.21-4.58-1.83-2.11-2.76-5.52-2.76-10.24,0-3.67,1.18-6.56,3.54-8.65,2.73-2.43,6.72-4.23,11.98-5.46,5.36-1.26,12.04-1.88,20.04-1.88,3.58,0,7.34.13,11.28.39-1.4,11.89-5.61,20.37-12.6,25.44Z"/>
      <path class="cls-1" d="m277.49,259.85c.35-.7.87-1.05,1.57-1.05h20.6c.61,0,1.09.26,1.44.79.35.44.39.96.13,1.57l-65.2,162.16c-.26.7-.79,1.05-1.57,1.05h-20.6c-.61,0-1.05-.26-1.31-.79-.35-.44-.44-.96-.26-1.57l19.94-49.59-46.05-111.25c-.26-.61-.22-1.14.13-1.57.35-.52.83-.79,1.44-.79h20.6c.79,0,1.31.35,1.57,1.05l34.37,82.78,33.19-82.78Z"/>
    </g>
  </g>
  <g>
    <g>
      <polygon class="cls-1" points="280.67 152.64 280.67 152.66 280.58 152.85 266.54 117.92 280.67 152.64"/>
      <polygon class="cls-2" points="280.67 152.64 280.67 152.66 280.58 152.85 266.54 117.92 280.67 152.64"/>
      <polygon class="cls-1" points="304.38 3.19 287.1 45.73 287.19 45.95 280.56 62.4 280.58 62.45 298.78 107.64 280.67 152.64 266.54 117.92 266.52 117.9 265.8 116.12 262.39 107.66 262.36 107.62 262.36 107.66 262.15 107.16 257.23 95.1 244.06 62.73 244.19 62.42 262.39 17.21 269.31 0 305.67 0 304.38 3.19"/>
      <polygon class="cls-1" points="280.58 152.85 256.8 211.96 219.52 211.96 237.15 168.61 262.15 107.16 262.36 107.66 262.36 107.68 262.39 107.66 265.8 116.12 266.52 117.9 266.54 117.92 280.58 152.85"/>
      <polygon class="cls-1" points="262.39 107.66 262.36 107.68 262.36 107.62 262.39 107.66"/>
      <polygon class="cls-1" points="287.21 45.99 280.58 62.45 280.56 62.4 287.19 45.95 287.21 45.99"/>
    </g>
    <g>
      <path class="cls-3" d="m200.33,168.61l6.46-15.88c-3.18-2.13-6.22-4.64-9.09-7.54-10.92-10.79-16.38-23.88-16.38-39.28s5.46-28.29,16.38-39.08c3.6-3.65,7.46-6.67,11.56-9.1l16-39.75c-19.58,2.33-36.67,10.7-51.24,25.16-17.37,17.37-26.06,38.29-26.06,62.77s8.68,45.6,26.06,62.97c6.22,6.17,12.9,11.22,20.03,15.18l6.28-15.45Z"/>
      <path class="cls-3" d="m371.49,43.15c-11.37-11.37-24.36-18.97-38.94-22.84l-10.33,25.42.09.22.02.04-2.23,5.54c10.57,2.08,19.88,7.18,27.91,15.3,10.92,10.79,16.38,23.82,16.38,39.08s-5.46,28.49-16.38,39.28c-9.96,10.08-21.89,15.5-35.77,16.27l-13.19,32.79c3.16.31,6.39.48,9.68.48,24.61,0,45.53-8.62,62.77-25.86,17.37-17.37,26.06-38.36,26.06-62.97s-8.68-45.4-26.06-62.77Z"/>
    </g>
  </g>
</svg>