<?xml version="1.0" encoding="UTF-8"?>
<svg id="Camada_1" data-name="Camada 1" xmlns="http://www.w3.org/2000/svg" viewBox="0 0 640 426">
  <defs>
    <style>
      .cls-1 {
        fill: #fff;
      }
    </style>
  </defs>
  <g>
    <path class="cls-1" d="m307.03,53.78v47.67l-76.61,182.47h-84.83l72.99-169.98h-44.39v33.54h-64.11V53.78h196.94Z"/>
    <path class="cls-1" d="m318.21,168.85c0-76.28,43.4-120.33,104.22-120.33s104.22,44.06,104.22,120.33-43.4,120.33-104.22,120.33-104.22-44.06-104.22-120.33Zm130.53,0c0-44.39-11.18-58.19-26.3-58.19s-26.3,13.81-26.3,58.19,11.18,58.19,26.3,58.19,26.3-13.81,26.3-58.19Z"/>
  </g>
  <g>
    <path class="cls-1" d="m202.85,388.68l-.19-30.58-14.57,24.54h-9.97l-14.57-23.48v29.52h-20.61v-67.1h18.6l21.86,35.75,21.28-35.75h18.6l.19,67.1h-20.61Z"/>
    <path class="cls-1" d="m309.34,371.62v17.06h-55.79v-67.1h54.54v17.06h-32.3v7.86h28.37v16.3h-28.37v8.82h33.55Z"/>
    <path class="cls-1" d="m381.61,353.31h19.65v28.37c-8.15,5.56-19.36,8.53-29.24,8.53-21.66,0-37.48-14.47-37.48-35.08s15.82-35.08,37.96-35.08c13.23,0,23.87,4.6,30.67,12.94l-14.47,12.75c-4.22-4.89-9.11-7.38-15.05-7.38-9.97,0-16.29,6.42-16.29,16.77s6.33,16.78,16.01,16.78c2.78,0,5.46-.48,8.24-1.63v-16.97Z"/>
    <path class="cls-1" d="m475.83,376.99h-25.5l-4.5,11.69h-23.01l29.33-67.1h22.24l29.33,67.1h-23.39l-4.51-11.69Zm-6.23-16.3l-6.52-16.87-6.52,16.87h13.04Z"/>
  </g>
</svg>